<svg width="1004" height="1006" viewBox="0 0 1004 1006" fill="none" xmlns="http://www.w3.org/2000/svg">
<g filter="url(#filter0_d)">
<path fill-rule="evenodd" clip-rule="evenodd" d="M999.104 500C999.104 631.84 946.731 758.28 853.506 851.505C760.28 944.731 633.84 997.104 502 997.104C370.159 997.104 243.719 944.731 150.494 851.505C57.2688 758.28 4.89551 631.84 4.89551 500C4.89551 368.16 57.2688 241.719 150.494 148.494C243.719 55.2688 370.159 2.89551 502 2.89551C633.84 2.89551 760.28 55.2688 853.506 148.494C946.731 241.719 999.104 368.16 999.104 500Z" fill="url(#paint0_radial)" fill-opacity="0.75"/>
<path fill-rule="evenodd" clip-rule="evenodd" d="M691.271 39.2334C691.271 39.2334 700.359 50.2167 700.359 50.2167L701.806 61.7997L690.706 68.5564L689.258 75.7958L672.849 68.5564L681.054 81.1047L682.501 90.7572L673.332 97.9966L659.335 86.8962H676.71L674.779 78.6916L654.509 70.487L632.308 67.5912L623.621 62.7649L603.351 59.3866L582.598 69.5217L575.359 71.4522L575.841 81.1047L565.706 97.9966L546.884 118.75L536.266 119.232L537.231 132.746L545.436 151.568L555.571 153.016L566.189 144.811L577.289 146.259L585.494 160.255L591.285 173.286L598.042 177.63L613.486 165.082L610.59 151.085L619.76 138.055L606.247 128.402L601.903 113.441L613.969 105.236L613.003 92.6877L626.517 93.653L627.965 97.9966L621.208 110.062V117.784L627.965 130.815L635.687 132.746L636.169 135.641H643.409L662.231 127.919L671.884 132.746L668.988 136.124H652.096L647.752 141.916L654.509 153.981L641.478 152.533L642.926 179.078L606.729 189.695L598.042 186.317L588.39 188.73L579.702 182.939L574.876 155.429L558.949 169.425L568.119 190.178L540.127 195.487L538.196 206.587L516.961 219.136L502.965 235.062L491.864 235.545L485.108 241.336L462.907 240.371L463.39 250.024L480.764 256.78L480.281 262.089L488.486 271.259L483.177 302.63L428.158 294.908L413.196 299.251L414.644 324.831L404.509 348.479L407.405 374.058L418.023 373.093L431.536 388.537L435.88 389.502L439.258 386.607L478.834 375.506L494.76 363.441L497.173 343.17L503.447 334.483L526.613 325.796L525.648 308.904L535.783 302.63L554.606 308.421L577.289 293.943L589.355 298.286L614.451 325.313L624.586 329.174L645.822 343.17L654.027 357.649L642.444 365.371L619.76 366.819L617.83 373.093L648.235 384.194L647.27 368.75H654.027L663.196 351.375L656.44 343.653L659.335 336.896L666.092 341.722L671.884 342.205L669.471 335.448L649.683 324.831L647.752 320.004L634.239 317.591L623.139 304.56L613.486 296.356L607.695 282.842L614.934 279.946L616.864 284.773L626.034 285.255L633.756 293.943L676.227 319.039L676.71 333.035L683.949 345.583L695.532 353.305L706.633 375.506L722.559 377.437L722.077 364.406L728.834 355.719L718.698 349.927L710.976 334.483L715.803 337.861L719.664 337.379L718.698 326.761L737.521 328.692L752 360.062L771.546 371.887L781.681 374.058L782.888 365.371L792.54 366.578L821.256 359.821L826.324 374.541L828.013 417.495L825.117 424.734L802.193 426.665L788.196 437.765L738.245 431.732L729.557 425.699L717.733 424.01L702.289 434.387L703.496 452.002L693.602 455.863L681.054 452.968L668.505 451.761L650.166 435.352L620.484 431.732L602.868 423.527L600.938 417.253L609.866 403.981L602.627 393.122L607.212 384.435L597.559 379.126L588.631 378.161L584.287 381.78H558.708L549.297 385.883L532.888 381.539L469.905 403.499L462.183 399.155L440.947 397.466L438.534 391.674L430.571 391.192L428.64 399.638L382.308 444.522L381.343 459.483L359.625 480.719L341.285 485.062L301.227 538.151L287.714 563.73L293.988 573.383L287.714 623.093L276.131 637.089L282.888 653.016L280.957 667.012L316.189 705.622L324.876 729.753L384.722 774.155L404.027 768.846L453.254 776.568L497.173 763.055L535.783 762.089L547.366 783.325L581.15 779.464L598.525 793.46L589.355 811.8L582.115 832.07L589.355 845.584L614.934 863.441L624.586 888.055L620.243 893.363L627 906.394L597.559 936.8L599.007 948.865L611.073 964.792L611.556 976.858L622.656 983.132C683.068 970.929 740.072 943.409 790.61 904.826L789.162 903.981V897.224L847.077 851.375L870.725 783.325L934.432 681.491L958.563 618.267L958.081 586.896L931.054 620.197L921.401 619.715L918.988 605.236L907.405 592.688H896.305L891.478 575.313L877.482 557.456L874.104 533.325L860.108 516.433L834.046 468.653L844.181 463.344L870.725 498.576L882.308 509.194L888.583 532.842L916.092 566.143L921.401 604.271H926.71L962.424 545.39L977.386 501.954L979.316 446.452L967.733 438.73L961.459 423.286L957.598 424.734V447.417L948.911 456.587L945.05 439.213L928.64 427.63L918.988 407.36L926.71 402.533L942.637 421.356L954.702 421.838L958.563 414.116L970.146 422.804L984.142 403.016L993.599 424.353C969.462 276.983 891.079 136.896 691.271 39.2334ZM844.664 245.68L854.799 247.611L873.139 264.985L890.03 287.186L911.266 319.039L903.544 325.313L888.583 320.97L883.274 293.943L857.212 273.19L844.664 245.68ZM747.656 259.676L761.652 261.124L776.613 278.499L788.679 266.433L816.671 278.016L829.702 288.151L831.633 301.665L806.054 304.56L782.405 300.217L766.961 316.143L750.069 314.695L739.934 304.56L747.656 259.676Z" fill="black" fill-opacity="0.607843"/>
<path fill-rule="evenodd" clip-rule="evenodd" d="M460.829 227.457L503.488 220.29L514.75 210.735L504.512 196.743L502.464 188.211L489.496 168.759L489.837 151.696L476.869 145.894L465.266 156.132L470.044 166.37L469.702 179.68L484.036 180.362L480.964 195.378L463.901 207.322L465.266 212.783L472.432 215.513L458.44 224.727L460.829 227.457Z" fill="black" fill-opacity="0.607843"/>
<path fill-rule="evenodd" clip-rule="evenodd" d="M461.851 180.02L454.343 204.933L425.335 208.687L427.383 200.496L437.621 197.766V194.354L429.43 191.282L435.232 180.703H442.74L447.517 174.901L461.509 175.925L461.851 180.02Z" fill="black" fill-opacity="0.607843"/>
<path fill-rule="evenodd" clip-rule="evenodd" d="M418.509 101.529L443.08 96.0685L445.469 87.5368L439.668 82.759L415.096 83.1003L411.001 80.7114L399.739 89.5844L408.954 101.529H418.509Z" fill="black" fill-opacity="0.607843"/>
<path fill-rule="evenodd" clip-rule="evenodd" d="M586.072 311.408L577.54 314.479L578.906 324.376L582.318 329.154L576.517 334.273L578.564 357.479L590.167 353.725L590.509 335.296L584.025 328.471L587.437 325.4L586.072 311.408Z" fill="black" fill-opacity="0.607843"/>
<path fill-rule="evenodd" clip-rule="evenodd" d="M290.877 109.719L341.384 79.0051L370.051 76.9575L387.114 68.7671L429.431 61.2592L448.542 46.2434L481.304 23.0372L501.097 17.5769L487.447 9.38647L453.32 7.33887H420.558L389.844 21.6721L314.765 66.0369L287.464 92.6558L290.877 109.719Z" fill="black" fill-opacity="0.607843"/>
<path fill-rule="evenodd" clip-rule="evenodd" d="M92.9375 216.194L118.191 192.988L121.604 203.226L148.223 185.48L142.08 180.702L162.556 160.909L178.254 161.591L153.683 181.385L163.921 201.178L181.667 174.56V166.369L208.969 137.703L218.524 113.131L250.603 86.5125L290.873 64.6714L366.634 19.624C366.634 19.624 212.381 47.9493 92.9375 216.194Z" fill="black" fill-opacity="0.607843"/>
<path fill-rule="evenodd" clip-rule="evenodd" d="M140.036 845.492L124.337 807.27L135.941 793.619L121.607 764.27L92.2583 726.048L67.0045 702.842L37.6555 646.874L21.9571 582.716L8.98904 538.351L4.89379 499.447C-3.97916 692.945 140.036 845.492 140.036 845.492Z" fill="black" fill-opacity="0.607843"/>
</g>
<circle id="fragment2" cx="753" cy="117" r="15" fill="url(#paint1_radial)"/>
<circle id="fragment3" cx="954.5" cy="369.5" r="12.5" fill="url(#paint2_radial)"/>
<circle id="fragment4" cx="84.5" cy="738.5" r="12.5" fill="url(#paint3_radial)"/>
<circle id="fragment5" cx="510.5" cy="523.5" r="12.5" fill="url(#paint4_radial)"/>
<circle id="fragment6" cx="788.5" cy="535.5" r="12.5" fill="url(#paint5_radial)"/>
<circle id="fragment7" cx="184" cy="135" r="15" fill="url(#paint6_radial)"/>
<circle id="fragment8" cx="452" cy="335" r="15" fill="url(#paint7_radial)"/>
<circle id="fragment9" cx="700.5" cy="299.5" r="12.5" fill="url(#paint8_radial)"/>
<circle id="fragment10" cx="415.5" cy="32.5" r="12.5" fill="url(#paint9_radial)"/>
<circle id="fragment11" cx="666.5" cy="813.5" r="12.5" fill="url(#paint10_radial)"/>
<defs>
<filter id="filter0_d" x="0.5" y="2.89551" width="1002.6" height="1002.21" filterUnits="userSpaceOnUse" color-interpolation-filters="sRGB">
<feFlood flood-opacity="0" result="BackgroundImageFix"/>
<feColorMatrix in="SourceAlpha" type="matrix" values="0 0 0 0 0 0 0 0 0 0 0 0 0 0 0 0 0 0 127 0"/>
<feOffset dy="4"/>
<feGaussianBlur stdDeviation="2"/>
<feColorMatrix type="matrix" values="0 0 0 0 0 0 0 0 0 0 0 0 0 0 0 0 0 0 0.25 0"/>
<feBlend mode="normal" in2="BackgroundImageFix" result="effect1_dropShadow"/>
<feBlend mode="normal" in="SourceGraphic" in2="effect1_dropShadow" result="shape"/>
</filter>
<radialGradient id="paint0_radial" cx="0" cy="0" r="1" gradientUnits="userSpaceOnUse" gradientTransform="translate(283.853 303.089) rotate(45.6995) scale(663.564 499.878)">
<stop stop-color="#577FFF"/>
<stop offset="1" stop-color="#00196E"/>
</radialGradient>
<radialGradient id="paint1_radial" cx="0" cy="0" r="1" gradientUnits="userSpaceOnUse" gradientTransform="translate(753 117) rotate(90) scale(15)">
<stop stop-color="#A7A9A5"/>
<stop offset="1" stop-color="#A7A9A5" stop-opacity="0"/>
</radialGradient>
<radialGradient id="paint2_radial" cx="0" cy="0" r="1" gradientUnits="userSpaceOnUse" gradientTransform="translate(954.5 369.5) rotate(90) scale(12.5)">
<stop stop-color="#A7A9A5"/>
<stop offset="1" stop-color="#A7A9A5" stop-opacity="0"/>
</radialGradient>
<radialGradient id="paint3_radial" cx="0" cy="0" r="1" gradientUnits="userSpaceOnUse" gradientTransform="translate(84.5 738.5) rotate(90) scale(12.5)">
<stop stop-color="#A7A9A5"/>
<stop offset="1" stop-color="#A7A9A5" stop-opacity="0"/>
</radialGradient>
<radialGradient id="paint4_radial" cx="0" cy="0" r="1" gradientUnits="userSpaceOnUse" gradientTransform="translate(510.5 523.5) rotate(90) scale(12.5)">
<stop stop-color="#A7A9A5"/>
<stop offset="1" stop-color="#A7A9A5" stop-opacity="0"/>
</radialGradient>
<radialGradient id="paint5_radial" cx="0" cy="0" r="1" gradientUnits="userSpaceOnUse" gradientTransform="translate(788.5 535.5) rotate(90) scale(12.5)">
<stop stop-color="#A7A9A5"/>
<stop offset="1" stop-color="#A7A9A5" stop-opacity="0"/>
</radialGradient>
<radialGradient id="paint6_radial" cx="0" cy="0" r="1" gradientUnits="userSpaceOnUse" gradientTransform="translate(184 135) rotate(90) scale(15)">
<stop stop-color="#A7A9A5"/>
<stop offset="1" stop-color="#A7A9A5" stop-opacity="0"/>
</radialGradient>
<radialGradient id="paint7_radial" cx="0" cy="0" r="1" gradientUnits="userSpaceOnUse" gradientTransform="translate(452 335) rotate(90) scale(15)">
<stop stop-color="#A7A9A5"/>
<stop offset="1" stop-color="#A7A9A5" stop-opacity="0"/>
</radialGradient>
<radialGradient id="paint8_radial" cx="0" cy="0" r="1" gradientUnits="userSpaceOnUse" gradientTransform="translate(700.5 299.5) rotate(90) scale(12.5)">
<stop stop-color="#A7A9A5"/>
<stop offset="1" stop-color="#A7A9A5" stop-opacity="0"/>
</radialGradient>
<radialGradient id="paint9_radial" cx="0" cy="0" r="1" gradientUnits="userSpaceOnUse" gradientTransform="translate(415.5 32.5) rotate(90) scale(12.5)">
<stop stop-color="#A7A9A5"/>
<stop offset="1" stop-color="#A7A9A5" stop-opacity="0"/>
</radialGradient>
<radialGradient id="paint10_radial" cx="0" cy="0" r="1" gradientUnits="userSpaceOnUse" gradientTransform="translate(666.5 813.5) rotate(90) scale(12.5)">
<stop stop-color="#A7A9A5"/>
<stop offset="1" stop-color="#A7A9A5" stop-opacity="0"/>
</radialGradient>
</defs>
<style>
  svg {
    transition: ease-in-out;
    animation: constantRotation 50s infinite;
  }
    #fragment2 {
        animation: flashlight 3s infinite;
        animation-delay: 5s;
        opacity: 0;
      }
      
    #fragment3 {
        animation: flashlight 3s infinite;
        animation-delay: 8s;
         opacity: 0;
      }
      
    #fragment4 {
        animation: flashlight 3s infinite;
        animation-delay: 6s;
         opacity: 0;
      }
      
    #fragment5 {
        animation: flashlight 3s infinite;
        animation-delay: 3.5s;
        opacity: 0;
      }
      
    #fragment6 {
        animation: flashlight 3s infinite;
        animation-delay: 7s;
        opacity: 0;
      }
      
    #fragment7 {
        animation: flashlight 3s infinite;
        animation-delay: 10s;
        opacity: 0;
      }
      
    #fragment8 {
        animation: flashlight 3s infinite;
        animation-delay: 9s;
        opacity: 0;
      }
      
    #fragment9 {
        animation: flashlight 3s infinite;
        animation-delay: 10.5s;
        opacity: 0;
      }
    #fragment10 {
        animation: flashlight 3s infinite;
        animation-delay: 10.5s;
        opacity: 0;
      }
    #fragment11 {
        animation: flashlight 3s infinite;
        animation-delay: 10.5s;
        opacity: 0;
      }
  
  @keyframes constantRotation {
    0% {
      transform: rotate(50deg);
    }
    40% {
      transform: rotate(100deg);
    }
    80% {
      transform: rotate(50deg);
    }
    100% {
      transform: rotate(0deg);
    }
  }
  
  @keyframes flashlight {
    0% {
      opacity: 0;
    }
    50% {
      opacity: 1;
      width: 200%;
      height: 200%;
      transform: scale(1.05);
    }
  }
</style>
</svg>





