<svg width="300" height="331" viewBox="0 0 300 331" fill="none" xmlns="http://www.w3.org/2000/svg">
<path d="M0 0L221.087 140.611L232 225.649L0 79.8165V0Z" fill="url(#paint0_linear)" fill-opacity="0.25"/>
<path d="M0 117.452L201.075 241.207L211 316.052L0 187.7V117.452Z" fill="url(#paint1_linear)" fill-opacity="0.25"/>
<path d="M0 51.2517L251.582 211.38L264 308.222L0 142.147V51.2517Z" fill="url(#paint2_linear)" fill-opacity="0.25"/>
<line y1="-0.5" x2="273.231" y2="-0.5" transform="matrix(0.845439 0.534072 -0.780066 0.625697 0 76.1655)" stroke="white" stroke-opacity="0.25"/>
<line y1="-0.5" x2="240.523" y2="-0.5" transform="matrix(0.848153 0.529751 -0.776591 0.630006 0 139.518)" stroke="white" stroke-opacity="0.25"/>
<path d="M0 0L221.087 140.611L232 225.649L0 79.8165V0Z" fill="url(#paint3_linear)" fill-opacity="0.25"/>
<path d="M0 117.452L201.075 241.207L211 316.052L0 187.7V117.452Z" fill="url(#paint4_linear)" fill-opacity="0.25"/>
<path d="M0 51.2517L251.582 211.38L264 308.222L0 142.147V51.2517Z" fill="url(#paint5_linear)" fill-opacity="0.25"/>
<line y1="-0.5" x2="273.231" y2="-0.5" transform="matrix(0.845439 0.534071 -0.780066 0.625697 0 76.1655)" stroke="white" stroke-opacity="0.25"/>
<line y1="-0.5" x2="240.523" y2="-0.5" transform="matrix(0.848153 0.529751 -0.776591 0.630006 0 139.518)" stroke="white" stroke-opacity="0.25"/>
<defs>
<linearGradient id="paint0_linear" x1="116" y1="0" x2="116" y2="225.649" gradientUnits="userSpaceOnUse">
<stop stop-color="#4F8095"/>
<stop offset="1" stop-color="#415B7A"/>
</linearGradient>
<linearGradient id="paint1_linear" x1="105.5" y1="117.452" x2="105.5" y2="316.052" gradientUnits="userSpaceOnUse">
<stop stop-color="#4F8095"/>
<stop offset="1" stop-color="#41787A"/>
</linearGradient>
<linearGradient id="paint2_linear" x1="132" y1="51.2517" x2="132" y2="308.222" gradientUnits="userSpaceOnUse">
<stop stop-color="#5C81AD"/>
<stop offset="1" stop-color="#4F8095"/>
</linearGradient>
<linearGradient id="paint3_linear" x1="116" y1="0" x2="116" y2="225.649" gradientUnits="userSpaceOnUse">
<stop stop-color="#FFEA00"/>
<stop offset="1" stop-color="#FFD600"/>
</linearGradient>
<linearGradient id="paint4_linear" x1="105.5" y1="117.452" x2="105.5" y2="316.052" gradientUnits="userSpaceOnUse">
<stop stop-color="#FFEA00"/>
<stop offset="1" stop-color="#FFD600"/>
</linearGradient>
<linearGradient id="paint5_linear" x1="132" y1="51.2517" x2="132" y2="308.222" gradientUnits="userSpaceOnUse">
<stop stop-color="#FFEA00"/>
<stop offset="1" stop-color="#FFD600"/>
</linearGradient>
</defs>
</svg>
