<svg width="300" height="331" viewBox="0 0 300 331" fill="none" xmlns="http://www.w3.org/2000/svg">
<path d="M300 331L78.9129 190.389L68 105.351L300 251.183V331Z" fill="url(#paint0_linear)" fill-opacity="0.25"/>
<path d="M300 213.548L98.9251 89.7926L89 14.9483L300 143.3V213.548Z" fill="url(#paint1_linear)" fill-opacity="0.25"/>
<path d="M300 279.748L48.4181 119.62L36 22.7784L300 188.853V279.748Z" fill="url(#paint2_linear)" fill-opacity="0.25"/>
<line y1="-0.5" x2="273.231" y2="-0.5" transform="matrix(-0.845439 -0.534072 0.780066 -0.625697 300 254.834)" stroke="white" stroke-opacity="0.25"/>
<line y1="-0.5" x2="240.523" y2="-0.5" transform="matrix(-0.848153 -0.529751 0.776591 -0.630006 300 191.482)" stroke="white" stroke-opacity="0.25"/>
<path d="M300 331L78.9129 190.389L68 105.351L300 251.183V331Z" fill="url(#paint3_linear)" fill-opacity="0.25"/>
<path d="M300 213.548L98.9251 89.7926L89 14.9483L300 143.3V213.548Z" fill="url(#paint4_linear)" fill-opacity="0.25"/>
<path d="M300 279.748L48.4181 119.62L36 22.7784L300 188.853V279.748Z" fill="url(#paint5_linear)" fill-opacity="0.25"/>
<line y1="-0.5" x2="273.231" y2="-0.5" transform="matrix(-0.845439 -0.534071 0.780066 -0.625697 300 254.834)" stroke="white" stroke-opacity="0.25"/>
<line y1="-0.5" x2="240.523" y2="-0.5" transform="matrix(-0.848153 -0.529751 0.776591 -0.630006 300 191.482)" stroke="white" stroke-opacity="0.25"/>
<defs>
<linearGradient id="paint0_linear" x1="184" y1="331" x2="184" y2="105.351" gradientUnits="userSpaceOnUse">
<stop stop-color="#4F8095"/>
<stop offset="1" stop-color="#415B7A"/>
</linearGradient>
<linearGradient id="paint1_linear" x1="194.5" y1="213.548" x2="194.5" y2="14.9483" gradientUnits="userSpaceOnUse">
<stop stop-color="#4F8095"/>
<stop offset="1" stop-color="#41787A"/>
</linearGradient>
<linearGradient id="paint2_linear" x1="168" y1="279.748" x2="168" y2="22.7784" gradientUnits="userSpaceOnUse">
<stop stop-color="#5C81AD"/>
<stop offset="1" stop-color="#4F8095"/>
</linearGradient>
<linearGradient id="paint3_linear" x1="184" y1="331" x2="184" y2="105.351" gradientUnits="userSpaceOnUse">
<stop stop-color="#BDBDBD"/>
<stop offset="1" stop-color="#E0E0E0"/>
<stop offset="1" stop-color="#757575"/>
</linearGradient>
<linearGradient id="paint4_linear" x1="194.5" y1="213.548" x2="194.5" y2="14.9483" gradientUnits="userSpaceOnUse">
<stop stop-color="#BDBDBD"/>
<stop offset="1" stop-color="#757575"/>
</linearGradient>
<linearGradient id="paint5_linear" x1="168" y1="279.748" x2="168" y2="22.7784" gradientUnits="userSpaceOnUse">
<stop stop-color="#BDBDBD"/>
<stop offset="1" stop-color="#757575"/>
</linearGradient>
</defs>
</svg>
